<mxfile host="Electron" modified="2024-05-20T15:25:31.423Z" agent="Mozilla/5.0 (Windows NT 10.0; Win64; x64) AppleWebKit/537.36 (KHTML, like Gecko) draw.io/24.4.0 Chrome/120.0.6099.109 Electron/28.1.0 Safari/537.36" etag="ZkOvk5fZW2aiNgkOKvrL" version="24.4.0" type="device">
  <diagram name="Page-1" id="mPzYtnwtnwmfgQd2G490">
    <mxGraphModel dx="1195" dy="703" grid="1" gridSize="10" guides="1" tooltips="1" connect="1" arrows="1" fold="1" page="1" pageScale="1" pageWidth="827" pageHeight="583" math="0" shadow="0">
      <root>
        <mxCell id="0" />
        <mxCell id="1" parent="0" />
        <mxCell id="273nE-D1bECkNSGUb3Tl-1" value="Motor driver structure" style="text;html=1;align=center;verticalAlign=middle;resizable=0;points=[];autosize=1;strokeColor=none;fillColor=none;fontSize=18;" vertex="1" parent="1">
          <mxGeometry x="20" y="15" width="190" height="40" as="geometry" />
        </mxCell>
        <mxCell id="273nE-D1bECkNSGUb3Tl-10" style="edgeStyle=orthogonalEdgeStyle;rounded=0;orthogonalLoop=1;jettySize=auto;html=1;exitX=0.25;exitY=1;exitDx=0;exitDy=0;entryX=0;entryY=0.5;entryDx=0;entryDy=0;dashed=1;" edge="1" parent="1" source="273nE-D1bECkNSGUb3Tl-2" target="273nE-D1bECkNSGUb3Tl-5">
          <mxGeometry relative="1" as="geometry" />
        </mxCell>
        <mxCell id="273nE-D1bECkNSGUb3Tl-2" value="Motor descriptor" style="rounded=1;whiteSpace=wrap;html=1;fillColor=#fff2cc;strokeColor=#d6b656;fontSize=16;" vertex="1" parent="1">
          <mxGeometry x="119" y="70" width="120" height="60" as="geometry" />
        </mxCell>
        <mxCell id="273nE-D1bECkNSGUb3Tl-9" value="" style="group" vertex="1" connectable="0" parent="1">
          <mxGeometry x="169" y="160" width="140" height="80" as="geometry" />
        </mxCell>
        <mxCell id="273nE-D1bECkNSGUb3Tl-5" value="" style="rounded=1;whiteSpace=wrap;html=1;fillColor=#f8cecc;strokeColor=#b85450;fontSize=16;" vertex="1" parent="273nE-D1bECkNSGUb3Tl-9">
          <mxGeometry width="120" height="60" as="geometry" />
        </mxCell>
        <mxCell id="273nE-D1bECkNSGUb3Tl-6" value="" style="rounded=1;whiteSpace=wrap;html=1;fillColor=#f8cecc;strokeColor=#b85450;fontSize=16;" vertex="1" parent="273nE-D1bECkNSGUb3Tl-9">
          <mxGeometry x="10" y="10" width="120" height="60" as="geometry" />
        </mxCell>
        <mxCell id="273nE-D1bECkNSGUb3Tl-8" value="Motor descriptors" style="rounded=1;whiteSpace=wrap;html=1;fillColor=#f8cecc;strokeColor=#b85450;fontSize=16;" vertex="1" parent="273nE-D1bECkNSGUb3Tl-9">
          <mxGeometry x="20" y="20" width="120" height="60" as="geometry" />
        </mxCell>
        <mxCell id="273nE-D1bECkNSGUb3Tl-22" style="edgeStyle=orthogonalEdgeStyle;rounded=0;orthogonalLoop=1;jettySize=auto;html=1;exitX=0.5;exitY=1;exitDx=0;exitDy=0;entryX=0;entryY=0.25;entryDx=0;entryDy=0;" edge="1" parent="1" source="273nE-D1bECkNSGUb3Tl-19" target="273nE-D1bECkNSGUb3Tl-17">
          <mxGeometry relative="1" as="geometry" />
        </mxCell>
        <mxCell id="273nE-D1bECkNSGUb3Tl-19" value="TIM CNT register" style="rounded=1;whiteSpace=wrap;html=1;fillColor=#d5e8d4;strokeColor=#82b366;fontSize=16;" vertex="1" parent="1">
          <mxGeometry x="359" y="70" width="120" height="60" as="geometry" />
        </mxCell>
        <mxCell id="273nE-D1bECkNSGUb3Tl-21" value="Main loop" style="swimlane;whiteSpace=wrap;html=1;" vertex="1" parent="1">
          <mxGeometry x="559" y="110" width="150" height="120" as="geometry" />
        </mxCell>
        <mxCell id="273nE-D1bECkNSGUb3Tl-17" value="Update total count" style="rounded=1;whiteSpace=wrap;html=1;fillColor=#dae8fc;strokeColor=#6c8ebf;fontSize=16;" vertex="1" parent="273nE-D1bECkNSGUb3Tl-21">
          <mxGeometry x="15" y="40" width="120" height="60" as="geometry" />
        </mxCell>
        <mxCell id="273nE-D1bECkNSGUb3Tl-18" style="edgeStyle=orthogonalEdgeStyle;rounded=0;orthogonalLoop=1;jettySize=auto;html=1;exitX=0;exitY=0.5;exitDx=0;exitDy=0;entryX=1;entryY=0.5;entryDx=0;entryDy=0;" edge="1" parent="1" source="273nE-D1bECkNSGUb3Tl-17" target="273nE-D1bECkNSGUb3Tl-8">
          <mxGeometry relative="1" as="geometry">
            <Array as="points">
              <mxPoint x="420" y="180" />
              <mxPoint x="420" y="210" />
            </Array>
          </mxGeometry>
        </mxCell>
        <mxCell id="273nE-D1bECkNSGUb3Tl-28" value="" style="edgeStyle=orthogonalEdgeStyle;rounded=0;orthogonalLoop=1;jettySize=auto;html=1;" edge="1" parent="1" source="273nE-D1bECkNSGUb3Tl-24" target="273nE-D1bECkNSGUb3Tl-27">
          <mxGeometry relative="1" as="geometry" />
        </mxCell>
        <mxCell id="273nE-D1bECkNSGUb3Tl-24" value="Set power" style="rounded=1;whiteSpace=wrap;html=1;fillColor=#dae8fc;strokeColor=#6c8ebf;fontSize=16;" vertex="1" parent="1">
          <mxGeometry x="359" y="250" width="120" height="60" as="geometry" />
        </mxCell>
        <mxCell id="273nE-D1bECkNSGUb3Tl-26" style="edgeStyle=orthogonalEdgeStyle;rounded=0;orthogonalLoop=1;jettySize=auto;html=1;exitX=0.5;exitY=1;exitDx=0;exitDy=0;entryX=0;entryY=0.5;entryDx=0;entryDy=0;" edge="1" parent="1" source="273nE-D1bECkNSGUb3Tl-8" target="273nE-D1bECkNSGUb3Tl-24">
          <mxGeometry relative="1" as="geometry" />
        </mxCell>
        <mxCell id="273nE-D1bECkNSGUb3Tl-27" value="TIM CCR register" style="rounded=1;whiteSpace=wrap;html=1;fillColor=#d5e8d4;strokeColor=#82b366;fontSize=16;" vertex="1" parent="1">
          <mxGeometry x="574" y="250" width="120" height="60" as="geometry" />
        </mxCell>
        <mxCell id="273nE-D1bECkNSGUb3Tl-29" value="Calculate torque" style="rounded=1;whiteSpace=wrap;html=1;fillColor=#dae8fc;strokeColor=#6c8ebf;fontSize=16;" vertex="1" parent="1">
          <mxGeometry x="359" y="320" width="120" height="60" as="geometry" />
        </mxCell>
        <mxCell id="273nE-D1bECkNSGUb3Tl-30" style="edgeStyle=orthogonalEdgeStyle;rounded=0;orthogonalLoop=1;jettySize=auto;html=1;exitX=0.5;exitY=1;exitDx=0;exitDy=0;entryX=0;entryY=0.25;entryDx=0;entryDy=0;" edge="1" parent="1" source="273nE-D1bECkNSGUb3Tl-8" target="273nE-D1bECkNSGUb3Tl-29">
          <mxGeometry relative="1" as="geometry" />
        </mxCell>
        <mxCell id="273nE-D1bECkNSGUb3Tl-36" style="edgeStyle=orthogonalEdgeStyle;rounded=0;orthogonalLoop=1;jettySize=auto;html=1;exitX=1;exitY=0.5;exitDx=0;exitDy=0;entryX=0;entryY=0.75;entryDx=0;entryDy=0;" edge="1" parent="1" source="273nE-D1bECkNSGUb3Tl-34" target="273nE-D1bECkNSGUb3Tl-29">
          <mxGeometry relative="1" as="geometry">
            <Array as="points">
              <mxPoint x="210" y="310" />
              <mxPoint x="210" y="365" />
            </Array>
          </mxGeometry>
        </mxCell>
        <mxCell id="273nE-D1bECkNSGUb3Tl-34" value="Get current&lt;div&gt;[ADC]&lt;/div&gt;" style="rounded=1;whiteSpace=wrap;html=1;fillColor=#dae8fc;strokeColor=#6c8ebf;fontSize=16;dashed=1;" vertex="1" parent="1">
          <mxGeometry x="49" y="280" width="120" height="60" as="geometry" />
        </mxCell>
      </root>
    </mxGraphModel>
  </diagram>
</mxfile>
